# xmcd
#
# Track frame offsets:
#	150
#	13037
#	27442
#	39504
#	51591
#	63679
#	74358
#	86237
#	97531
#	108071
#	129760
#	141956
#
# Disc length: 2020 seconds
#
# Revision: 1
# Processed by: cddbd v1.5.2PL0 Copyright (c) Steve Scherf et al.
# Submitted via: audiograbber 1.83.01
#
DISCID=a007e20c
DTITLE=Various Artist - Dillard's Collection Christmas fav's - Country
DYEAR=2007
DGENRE=Christmas
TTITLE0=Judds, The - Santa Claus is Comming to Town
TTITLE1=Dwight Yoakam - Run Run Rudolph
TTITLE2=LeAnn Rimes - Rockin Around the Christmas Tree
TTITLE3=Johnny Lee - Please Come Home for Christmas
TTITLE4=Michael Martin Murphey - Sliegh Ride/Jingle Bells
TTITLE5=Trick Pony - Winter Wonderland
TTITLE6=Clay Walker - Feliz Navidad
TTITLE7=Travis Tritt - Santa Looked a Lot Like Daddy
TTITLE8=John Michael Montgomery - Rudolph the Red Nosed Reindeer
TTITLE9=B.J.Thomas - Tennessee Christmas
TTITLE10=Randy Travis - Meet Me Under the Mistletoe
TTITLE11=Reba McEntire - Up On The Housetop
EXTD=
EXTT0=
EXTT1=
EXTT2=
EXTT3=
EXTT4=
EXTT5=
EXTT6=
EXTT7=
EXTT8=
EXTT9=
EXTT10=
EXTT11=
PLAYORDER=
